<svg width="12" height="14" viewBox="0 0 12 14" fill="none" xmlns="http://www.w3.org/2000/svg">
<path d="M10.7059 8.33001C10.6471 8.39036 10.4251 8.64841 10.2183 8.86068C9.00598 10.1957 5.8433 12.3808 4.18796 13.0478C3.93657 13.155 3.301 13.3818 2.96141 13.3964C2.63602 13.3964 2.32584 13.3215 2.02984 13.1696C1.66086 12.9573 1.36487 12.6233 1.20268 12.2289C1.09827 11.9553 0.936085 11.1363 0.936085 11.1218C0.773896 10.2259 0.684692 8.77016 0.684692 7.16148C0.684692 5.62876 0.773896 4.23236 0.906688 3.32293C0.921893 3.30836 1.08408 2.29071 1.26148 1.94213C1.58687 1.30532 2.22244 0.909912 2.90262 0.909912H2.96141C3.40439 0.92552 4.33596 1.32093 4.33596 1.33549C5.90209 2.00352 8.99178 4.08148 10.2335 5.46228C10.2335 5.46228 10.5833 5.8171 10.7353 6.03874C10.9725 6.35714 11.0901 6.75151 11.0901 7.14587C11.0901 7.58602 10.9573 7.99599 10.7059 8.33001Z" fill="#5D3BEE"/>
</svg>
